
<svg version="1.0" xmlns="http://www.w3.org/2000/svg"
 width="428.000000pt" height="512.000000pt" viewBox="0 0 428.000000 512.000000"
 preserveAspectRatio="xMidYMid meet">

<g transform="translate(0.000000,512.000000) scale(0.100000,-0.100000)"
fill="#000000" stroke="none">
<path d="M1710 5104 c-210 -46 -390 -144 -540 -293 -126 -124 -207 -259 -265
-435 l-33 -101 -365 -5 -365 -5 -44 -30 c-53 -37 -98 -120 -98 -181 0 -77 46
-154 115 -192 22 -13 66 -18 170 -22 l140 -5 5 -1470 5 -1470 27 -97 c112
-405 426 -700 833 -783 70 -14 176 -15 880 -12 918 3 857 -2 1070 102 288 140
487 380 573 693 l27 97 5 1470 5 1470 140 5 c154 5 181 14 229 71 63 74 72
154 29 240 -19 35 -43 64 -71 84 l-44 30 -365 5 -365 5 -33 101 c-18 56 -45
125 -61 155 -138 274 -388 477 -692 562 -72 20 -102 21 -462 23 -304 2 -399 0
-450 -12z m835 -448 c103 -36 185 -86 255 -156 59 -59 124 -156 135 -202 l7
-28 -802 0 -802 0 7 28 c11 44 74 140 129 197 91 92 223 162 349 184 29 5 185
9 347 7 294 -2 295 -2 375 -30z m870 -2246 c0 -1593 5 -1472 -72 -1629 -48
-100 -169 -222 -268 -273 -148 -77 -102 -73 -935 -73 -833 0 -787 -4 -935 73
-101 52 -220 173 -268 272 -77 158 -71 30 -75 1614 -1 781 0 1426 2 1433 5 11
232 13 1278 11 l1273 -3 0 -1425z"/>
<path d="M1613 2965 c-32 -16 -61 -41 -79 -67 l-29 -41 -3 -712 -2 -711 23
-45 c13 -24 43 -57 66 -74 39 -27 50 -30 125 -30 75 0 87 3 124 29 26 18 51
47 67 79 l25 51 0 690 c0 651 -2 693 -19 731 -52 113 -183 157 -298 100z"/>
<path d="M2475 2971 c-22 -10 -52 -31 -67 -47 -60 -64 -58 -40 -58 -792 l0
-688 25 -51 c38 -75 89 -107 179 -111 91 -4 146 22 194 92 l32 49 -2 717 -3
717 -29 41 c-56 82 -180 115 -271 73z"/>
</g>
</svg>
